<mxfile host="app.diagrams.net" agent="Mozilla/5.0 (Windows NT 10.0; Win64; x64) AppleWebKit/537.36 (KHTML, like Gecko) Chrome/139.0.0.0 Safari/537.36" version="28.1.1">
  <diagram name="Página-1" id="jfm4Rrlr7rEuqVsOvcBu">
    <mxGraphModel dx="1025" dy="431" grid="1" gridSize="10" guides="1" tooltips="1" connect="1" arrows="1" fold="1" page="1" pageScale="1" pageWidth="827" pageHeight="1169" math="0" shadow="0">
      <root>
        <mxCell id="0" />
        <mxCell id="1" parent="0" />
        <mxCell id="o_pJrItacFr6757scenL-1" value="Autor" style="swimlane;fontStyle=1;align=center;verticalAlign=top;childLayout=stackLayout;horizontal=1;startSize=30;horizontalStack=0;resizeParent=1;resizeParentMax=0;resizeLast=0;collapsible=1;marginBottom=0;whiteSpace=wrap;html=1;" parent="1" vertex="1">
          <mxGeometry x="600" y="128" width="160" height="118" as="geometry" />
        </mxCell>
        <mxCell id="o_pJrItacFr6757scenL-2" value="- Nombre: string&lt;div&gt;- Nacionalidad: string&lt;/div&gt;&lt;div&gt;- Fecha_Nacimiento: int&lt;/div&gt;" style="text;strokeColor=none;fillColor=none;align=left;verticalAlign=top;spacingLeft=4;spacingRight=4;overflow=hidden;rotatable=0;points=[[0,0.5],[1,0.5]];portConstraint=eastwest;whiteSpace=wrap;html=1;" parent="o_pJrItacFr6757scenL-1" vertex="1">
          <mxGeometry y="30" width="160" height="54" as="geometry" />
        </mxCell>
        <mxCell id="o_pJrItacFr6757scenL-3" value="" style="line;strokeWidth=1;fillColor=none;align=left;verticalAlign=middle;spacingTop=-1;spacingLeft=3;spacingRight=3;rotatable=0;labelPosition=right;points=[];portConstraint=eastwest;strokeColor=inherit;" parent="o_pJrItacFr6757scenL-1" vertex="1">
          <mxGeometry y="84" width="160" height="8" as="geometry" />
        </mxCell>
        <mxCell id="o_pJrItacFr6757scenL-4" value="+ Info()" style="text;strokeColor=none;fillColor=none;align=left;verticalAlign=top;spacingLeft=4;spacingRight=4;overflow=hidden;rotatable=0;points=[[0,0.5],[1,0.5]];portConstraint=eastwest;whiteSpace=wrap;html=1;" parent="o_pJrItacFr6757scenL-1" vertex="1">
          <mxGeometry y="92" width="160" height="26" as="geometry" />
        </mxCell>
        <mxCell id="o_pJrItacFr6757scenL-5" value="Libro" style="swimlane;fontStyle=1;align=center;verticalAlign=top;childLayout=stackLayout;horizontal=1;startSize=30;horizontalStack=0;resizeParent=1;resizeParentMax=0;resizeLast=0;collapsible=1;marginBottom=0;whiteSpace=wrap;html=1;" parent="1" vertex="1">
          <mxGeometry x="80" y="120" width="160" height="134" as="geometry">
            <mxRectangle x="240" y="130" width="70" height="30" as="alternateBounds" />
          </mxGeometry>
        </mxCell>
        <mxCell id="o_pJrItacFr6757scenL-6" value="&lt;div&gt;- ID_Libro: int&lt;/div&gt;- Título: string&lt;div&gt;- Año_Publicado: int&lt;/div&gt;&lt;div&gt;- Autor: string&lt;/div&gt;" style="text;strokeColor=none;fillColor=none;align=left;verticalAlign=top;spacingLeft=4;spacingRight=4;overflow=hidden;rotatable=0;points=[[0,0.5],[1,0.5]];portConstraint=eastwest;whiteSpace=wrap;html=1;" parent="o_pJrItacFr6757scenL-5" vertex="1">
          <mxGeometry y="30" width="160" height="70" as="geometry" />
        </mxCell>
        <mxCell id="o_pJrItacFr6757scenL-7" value="" style="line;strokeWidth=1;fillColor=none;align=left;verticalAlign=middle;spacingTop=-1;spacingLeft=3;spacingRight=3;rotatable=0;labelPosition=right;points=[];portConstraint=eastwest;strokeColor=inherit;" parent="o_pJrItacFr6757scenL-5" vertex="1">
          <mxGeometry y="100" width="160" height="8" as="geometry" />
        </mxCell>
        <mxCell id="o_pJrItacFr6757scenL-8" value="+ Info()" style="text;strokeColor=none;fillColor=none;align=left;verticalAlign=top;spacingLeft=4;spacingRight=4;overflow=hidden;rotatable=0;points=[[0,0.5],[1,0.5]];portConstraint=eastwest;whiteSpace=wrap;html=1;" parent="o_pJrItacFr6757scenL-5" vertex="1">
          <mxGeometry y="108" width="160" height="26" as="geometry" />
        </mxCell>
        <mxCell id="o_pJrItacFr6757scenL-9" value="Usuario" style="swimlane;fontStyle=1;align=center;verticalAlign=top;childLayout=stackLayout;horizontal=1;startSize=26;horizontalStack=0;resizeParent=1;resizeParentMax=0;resizeLast=0;collapsible=1;marginBottom=0;whiteSpace=wrap;html=1;" parent="1" vertex="1">
          <mxGeometry x="80" y="360" width="160" height="130" as="geometry" />
        </mxCell>
        <mxCell id="o_pJrItacFr6757scenL-10" value="- Nombre: string&lt;div&gt;- Nacionalidad: string&lt;/div&gt;&lt;div&gt;- Fecha_Nacimiento: int&lt;/div&gt;" style="text;strokeColor=none;fillColor=none;align=left;verticalAlign=top;spacingLeft=4;spacingRight=4;overflow=hidden;rotatable=0;points=[[0,0.5],[1,0.5]];portConstraint=eastwest;whiteSpace=wrap;html=1;" parent="o_pJrItacFr6757scenL-9" vertex="1">
          <mxGeometry y="26" width="160" height="54" as="geometry" />
        </mxCell>
        <mxCell id="o_pJrItacFr6757scenL-11" value="" style="line;strokeWidth=1;fillColor=none;align=left;verticalAlign=middle;spacingTop=-1;spacingLeft=3;spacingRight=3;rotatable=0;labelPosition=right;points=[];portConstraint=eastwest;strokeColor=inherit;" parent="o_pJrItacFr6757scenL-9" vertex="1">
          <mxGeometry y="80" width="160" height="8" as="geometry" />
        </mxCell>
        <mxCell id="o_pJrItacFr6757scenL-12" value="+ Info()&lt;div&gt;+ Solicitar_Libro()&lt;/div&gt;" style="text;strokeColor=none;fillColor=none;align=left;verticalAlign=top;spacingLeft=4;spacingRight=4;overflow=hidden;rotatable=0;points=[[0,0.5],[1,0.5]];portConstraint=eastwest;whiteSpace=wrap;html=1;" parent="o_pJrItacFr6757scenL-9" vertex="1">
          <mxGeometry y="88" width="160" height="42" as="geometry" />
        </mxCell>
        <mxCell id="o_pJrItacFr6757scenL-13" value="Préstamo" style="swimlane;fontStyle=1;align=center;verticalAlign=top;childLayout=stackLayout;horizontal=1;startSize=26;horizontalStack=0;resizeParent=1;resizeParentMax=0;resizeLast=0;collapsible=1;marginBottom=0;whiteSpace=wrap;html=1;" parent="1" vertex="1">
          <mxGeometry x="590" y="350" width="160" height="140" as="geometry" />
        </mxCell>
        <mxCell id="o_pJrItacFr6757scenL-14" value="- Título_Libro: string&lt;div&gt;- ID_Libro: int&lt;/div&gt;&lt;div&gt;- Fecha_Préstamo:&amp;nbsp;&lt;/div&gt;&lt;div&gt;- Usuario_Préstamo&lt;/div&gt;" style="text;strokeColor=none;fillColor=none;align=left;verticalAlign=top;spacingLeft=4;spacingRight=4;overflow=hidden;rotatable=0;points=[[0,0.5],[1,0.5]];portConstraint=eastwest;whiteSpace=wrap;html=1;" parent="o_pJrItacFr6757scenL-13" vertex="1">
          <mxGeometry y="26" width="160" height="64" as="geometry" />
        </mxCell>
        <mxCell id="o_pJrItacFr6757scenL-15" value="" style="line;strokeWidth=1;fillColor=none;align=left;verticalAlign=middle;spacingTop=-1;spacingLeft=3;spacingRight=3;rotatable=0;labelPosition=right;points=[];portConstraint=eastwest;strokeColor=inherit;" parent="o_pJrItacFr6757scenL-13" vertex="1">
          <mxGeometry y="90" width="160" height="8" as="geometry" />
        </mxCell>
        <mxCell id="o_pJrItacFr6757scenL-16" value="+ Info_Préstamo(&lt;span style=&quot;background-color: transparent; color: light-dark(rgb(0, 0, 0), rgb(255, 255, 255));&quot;&gt;)&lt;/span&gt;&lt;div&gt;&lt;span style=&quot;background-color: transparent; color: light-dark(rgb(0, 0, 0), rgb(255, 255, 255));&quot;&gt;+ Prestar_Libro()&lt;/span&gt;&lt;/div&gt;" style="text;strokeColor=none;fillColor=none;align=left;verticalAlign=top;spacingLeft=4;spacingRight=4;overflow=hidden;rotatable=0;points=[[0,0.5],[1,0.5]];portConstraint=eastwest;whiteSpace=wrap;html=1;" parent="o_pJrItacFr6757scenL-13" vertex="1">
          <mxGeometry y="98" width="160" height="42" as="geometry" />
        </mxCell>
        <mxCell id="E4ISM2O3RJsghghq0-ap-3" value="" style="endArrow=diamondThin;endFill=0;endSize=24;html=1;rounded=0;entryX=0;entryY=0.5;entryDx=0;entryDy=0;" parent="1" target="o_pJrItacFr6757scenL-2" edge="1">
          <mxGeometry width="160" relative="1" as="geometry">
            <mxPoint x="240" y="186.5" as="sourcePoint" />
            <mxPoint x="400" y="186.5" as="targetPoint" />
          </mxGeometry>
        </mxCell>
        <mxCell id="E4ISM2O3RJsghghq0-ap-5" value="" style="endArrow=diamondThin;endFill=1;endSize=24;html=1;rounded=0;exitX=0;exitY=0.5;exitDx=0;exitDy=0;" parent="1" source="o_pJrItacFr6757scenL-14" edge="1">
          <mxGeometry width="160" relative="1" as="geometry">
            <mxPoint x="420" y="410" as="sourcePoint" />
            <mxPoint x="240" y="410" as="targetPoint" />
          </mxGeometry>
        </mxCell>
        <mxCell id="tPRMB2HdWJRxpATsPNoy-2" value="" style="endArrow=open;startArrow=circlePlus;endFill=0;startFill=0;endSize=8;html=1;rounded=0;exitX=0.494;exitY=1.154;exitDx=0;exitDy=0;exitPerimeter=0;" edge="1" parent="1" source="o_pJrItacFr6757scenL-8">
          <mxGeometry width="160" relative="1" as="geometry">
            <mxPoint x="159.5" y="260" as="sourcePoint" />
            <mxPoint x="159.5" y="360" as="targetPoint" />
          </mxGeometry>
        </mxCell>
      </root>
    </mxGraphModel>
  </diagram>
</mxfile>
